<svg xmlns="http://www.w3.org/2000/svg" viewBox="0 0 127.06 27"><title>Asset 2</title><g id="Layer_2" data-name="Layer 2"><g id="Layer_1-2" data-name="Layer 1"><path d="M2.26,13.5c.06.17.46.94,2.59,2.55a55.73,55.73,0,0,0,6.21,4c4.94,2.75,9.81,4.74,11.59,4.74h81.76c1.77,0,6.65-2,11.58-4.74a55,55,0,0,0,6.22-4c2.13-1.61,2.52-2.38,2.59-2.55s-.46-.94-2.59-2.55A55,55,0,0,0,116,7c-4.93-2.75-9.81-4.74-11.58-4.74H22.65c-1.78,0-6.65,2-11.59,4.74a55.73,55.73,0,0,0-6.21,4c-2.13,1.61-2.53,2.38-2.59,2.55M104.41,27H22.65c-2.76,0-8.72-2.8-13-5.2a53.59,53.59,0,0,1-6.5-4.2C1,15.89,0,14.63,0,13.5s1-2.39,3.17-4.1a53.59,53.59,0,0,1,6.5-4.2C13.93,2.8,19.89,0,22.65,0h81.76c2.76,0,8.71,2.8,13,5.2a52.06,52.06,0,0,1,6.5,4.2c2.2,1.71,3.18,3,3.18,4.1s-1,2.39-3.18,4.1a52.06,52.06,0,0,1-6.5,4.2c-4.26,2.4-10.21,5.2-13,5.2"/><path d="M11.33,15a1.42,1.42,0,1,0-1.42-1.42A1.42,1.42,0,0,0,11.33,15"/><path d="M115.73,14.91a1.43,1.43,0,1,0-1.43-1.42,1.43,1.43,0,0,0,1.43,1.42"/><path d="M25,18.4a.39.39,0,0,0-.39-.36H20.76a.38.38,0,0,1-.38-.37V7A.4.4,0,0,0,20,6.61H18a.38.38,0,0,0-.37.38V20a.38.38,0,0,0,.37.38h6.54A.39.39,0,0,0,25,20ZM31.1,16c0,.23-.06.33-.27.33H29.31c-.18,0-.3-.1-.26-.33l1-5.39c0-.1.06-.1.08,0Zm3.1,4.44a.35.35,0,0,0,.36-.47l-2.9-13a.37.37,0,0,0-.36-.32H29a.38.38,0,0,0-.36.32l-3,13c-.08.33.1.49.36.49h1.91c.24,0,.32-.08.36-.3l.28-1.46A.36.36,0,0,1,29,18.3h2.21a.34.34,0,0,1,.36.33l.29,1.46a.35.35,0,0,0,.36.3Zm9.28,0a.39.39,0,0,0,.38-.34L46.26,7.1a.37.37,0,0,0-.37-.49H44.07c-.25,0-.35,0-.39.32l-1.36,8.45c0,.09-.06.09-.08,0L40.84,7a.37.37,0,0,0-.4-.36H39.2c-.2,0-.34.12-.38.38l-1.5,8.41c0,.11-.06.11-.08,0L36,7a.37.37,0,0,0-.38-.34h-2a.38.38,0,0,0-.36.47l2.27,13a.38.38,0,0,0,.36.34h1.84a.35.35,0,0,0,.41-.32l1.54-8c0-.1.08-.1.1,0l1.44,8a.37.37,0,0,0,.36.34Zm5.57,0a.38.38,0,0,0,.37-.38l-.1-8.13c0-.08.06-.1.1,0l3.16,8.27a.36.36,0,0,0,.36.24h1.83a.39.39,0,0,0,.38-.38V7a.39.39,0,0,0-.38-.38H53a.39.39,0,0,0-.38.38l.1,8c0,.1-.06.08-.08,0L49.54,6.93c-.08-.18-.2-.32-.37-.32H47.31a.38.38,0,0,0-.37.38V20a.38.38,0,0,0,.37.38Zm16.54-3.65a1.39,1.39,0,0,1-1.36,1.44,1.36,1.36,0,0,1-1.38-1.42v-6.5a1.37,1.37,0,1,1,2.74,0v.3A.39.39,0,0,0,66,11h1.93a.4.4,0,0,0,.38-.39v-.22a3.77,3.77,0,0,0-4-3.89,3.85,3.85,0,0,0-4.09,3.89v6.4a3.87,3.87,0,0,0,4.07,3.81,3.82,3.82,0,0,0,4.05-4.15.39.39,0,0,0-.38-.39H66c-.3,0-.36.1-.36.39Zm11.85-6.4a3.85,3.85,0,0,0-4.11-3.89,3.91,3.91,0,0,0-4.12,4.07v6.14a3.87,3.87,0,0,0,4.12,3.89,3.92,3.92,0,0,0,4.11-3.91Zm-2.71,6.4a1.4,1.4,0,0,1-1.4,1.44c-1,0-1.4-.75-1.4-1.9V10.74c0-1.21.45-1.92,1.4-1.92s1.4.69,1.4,1.92Zm6.36-7.39A.4.4,0,0,1,81.48,9h3.89a.38.38,0,0,0,.38-.36V7a.39.39,0,0,0-.38-.38H78.74a.38.38,0,0,0-.37.38V20a.38.38,0,0,0,.37.38h2a.38.38,0,0,0,.39-.36V15a.4.4,0,0,1,.39-.39H84a.38.38,0,0,0,.38-.36V12.65a.4.4,0,0,0-.38-.39H81.48a.4.4,0,0,1-.39-.38Zm8,0A.4.4,0,0,1,89.44,9h3.89a.38.38,0,0,0,.38-.36V7a.39.39,0,0,0-.38-.38H86.7a.38.38,0,0,0-.36.38V20a.38.38,0,0,0,.36.38h2a.38.38,0,0,0,.38-.36V15a.41.41,0,0,1,.39-.39H92a.39.39,0,0,0,.39-.36V12.65a.41.41,0,0,0-.39-.39H89.44a.4.4,0,0,1-.39-.38Zm12.43,9.07a.4.4,0,0,0-.39-.38H97.4a.4.4,0,0,1-.38-.39V15a.4.4,0,0,1,.38-.39H99a.38.38,0,0,0,.39-.36V12.65a.4.4,0,0,0-.39-.39H97.4a.39.39,0,0,1-.38-.38V9.35A.4.4,0,0,1,97.4,9h3.69a.39.39,0,0,0,.39-.36V7a.4.4,0,0,0-.39-.38H94.67A.38.38,0,0,0,94.3,7V20a.38.38,0,0,0,.37.38h6.42a.39.39,0,0,0,.39-.36Zm8.3,0a.39.39,0,0,0-.38-.38h-3.69a.4.4,0,0,1-.38-.39V15a.4.4,0,0,1,.38-.39h1.62a.38.38,0,0,0,.39-.36V12.65a.4.4,0,0,0-.39-.39h-1.62a.39.39,0,0,1-.38-.38V9.35a.4.4,0,0,1,.38-.39h3.69a.38.38,0,0,0,.38-.36V7a.39.39,0,0,0-.38-.38H103a.38.38,0,0,0-.37.38V20a.38.38,0,0,0,.37.38h6.42a.38.38,0,0,0,.38-.36Z"/></g></g></svg>