<?xml version="1.0" encoding="utf-8"?>
<!-- Generator: Adobe Illustrator 22.1.0, SVG Export Plug-In . SVG Version: 6.00 Build 0)  -->
<svg version="1.1" id="Layer_1" xmlns="http://www.w3.org/2000/svg" xmlns:xlink="http://www.w3.org/1999/xlink" x="0px" y="0px"
	 viewBox="0 0 819.9 309.9" style="enable-background:new 0 0 819.9 309.9;" xml:space="preserve">
<style type="text/css">
	.st0{fill:#FFFFFF;}
</style>
<g>
	<g>
		<rect x="818.9" y="0.5" class="st0" width="1" height="308.7"/>
	</g>
	<g>
		<rect x="350.9" y="0.5" class="st0" width="1" height="308.7"/>
	</g>
	<g>
		<rect x="189.9" y="0.5" class="st0" width="1" height="308.7"/>
	</g>
	<g>
		
			<rect x="304.1" y="154.5" transform="matrix(0.835 -0.5502 0.5502 0.835 11.2348 347.3813)" class="st0" width="561.6" height="1"/>
	</g>
	<g>
		
			<rect x="269.9" y="154.4" transform="matrix(0.5744 -0.8186 0.8186 0.5744 68.4239 441.3111)" class="st0" width="377.3" height="1"/>
	</g>
	<g>
		
			<rect x="340.2" y="238.8" transform="matrix(0.9578 -0.2873 0.2873 0.9578 -44.1182 178.0829)" class="st0" width="488.9" height="1"/>
	</g>
	<g>
		<rect x="0.4" y="152.9" class="st0" width="351" height="1"/>
	</g>
	<g>
		
			<rect x="269.9" y="-18.9" transform="matrix(0.8879 -0.46 0.46 0.8879 -40.9849 141.7537)" class="st0" width="1" height="347.9"/>
	</g>
	<g>
		
			<rect x="-85.8" y="154.4" transform="matrix(0.5237 -0.8519 0.8519 0.5237 -86.5252 155.09)" class="st0" width="362.5" height="1"/>
	</g>
</g>
</svg>
