<?xml version="1.0" encoding="utf-8"?>
<!-- Generator: Adobe Illustrator 22.1.0, SVG Export Plug-In . SVG Version: 6.00 Build 0)  -->
<svg version="1.1" id="Layer_1" xmlns="http://www.w3.org/2000/svg" xmlns:xlink="http://www.w3.org/1999/xlink" x="0px" y="0px"
	 viewBox="0 0 819.9 309.4" style="enable-background:new 0 0 819.9 309.4;" xml:space="preserve">
<style type="text/css">
	.st0{fill:#FFFFFF;}
</style>
<g>
	<g>
		<rect y="0.3" class="st0" width="1" height="308.6"/>
	</g>
	<g>
		<rect x="0.5" y="152.6" class="st0" width="629" height="1"/>
	</g>
	<g>
		
			<rect x="-11.2" y="77.5" transform="matrix(0.9528 -0.3036 0.3036 0.9528 -12.5892 75.0189)" class="st0" width="492.4" height="1"/>
	</g>
	<g>
		
			<rect x="130" y="79.5" transform="matrix(0.5137 -0.858 0.858 0.5137 -134.8113 224.3357)" class="st0" width="1" height="303.1"/>
	</g>
	<g>
		<rect x="260" y="0.3" class="st0" width="1" height="308.7"/>
	</g>
	<g>
		<rect x="629" y="0.3" class="st0" width="1" height="308.7"/>
	</g>
	<g>
		
			<rect x="244.7" y="230.5" transform="matrix(0.9215 -0.3885 0.3885 0.9215 -54.8022 191.0294)" class="st0" width="400.5" height="1"/>
	</g>
	<g>
		
			<rect x="179.8" y="155.5" transform="matrix(0.5646 -0.8254 0.8254 0.5646 30.1408 369.2102)" class="st0" width="370.4" height="1"/>
	</g>
	<g>
		
			<rect x="724" y="-26.6" transform="matrix(0.8516 -0.5241 0.5241 0.8516 26.4378 402.6594)" class="st0" width="1" height="362.5"/>
	</g>
</g>
</svg>
