<svg xmlns="http://www.w3.org/2000/svg" viewBox="0 0 25.94 25.94"><defs><style>.cls-1{fill:none;stroke:#000;stroke-miterlimit:10;stroke-width:0.94px;}</style></defs><title>Asset 4</title><g id="Layer_2" data-name="Layer 2"><g id="Layer_1-2" data-name="Layer 1"><path d="M18.89,8.87a3,3,0,0,0-.72-1.1,3,3,0,0,0-1.11-.72,4.39,4.39,0,0,0-1.51-.29c-.67,0-.88,0-2.58,0s-1.91,0-2.58,0a4.45,4.45,0,0,0-1.52.29A3.22,3.22,0,0,0,7.05,8.87a4.5,4.5,0,0,0-.29,1.52c0,.67,0,.88,0,2.58s0,1.91,0,2.58a4.39,4.39,0,0,0,.29,1.51,3,3,0,0,0,.72,1.11,3,3,0,0,0,1.1.72,4.76,4.76,0,0,0,1.52.29c.67,0,.88,0,2.58,0s1.91,0,2.58,0a4.64,4.64,0,0,0,1.51-.29,3.17,3.17,0,0,0,1.83-1.83,4.64,4.64,0,0,0,.29-1.51c0-.67,0-.88,0-2.58s0-1.91,0-2.58A4.7,4.7,0,0,0,18.89,8.87Zm-.84,6.62a3.37,3.37,0,0,1-.21,1.16,1.84,1.84,0,0,1-.47.72,1.91,1.91,0,0,1-.72.47,3.36,3.36,0,0,1-1.16.22c-.66,0-.85,0-2.53,0s-1.87,0-2.52,0a3.36,3.36,0,0,1-1.16-.22,1.91,1.91,0,0,1-.72-.47,1.88,1.88,0,0,1-.47-.72,3.36,3.36,0,0,1-.22-1.16c0-.66,0-.85,0-2.52s0-1.87,0-2.53a3.36,3.36,0,0,1,.22-1.16,1.91,1.91,0,0,1,.47-.72,1.93,1.93,0,0,1,.72-.46,3.36,3.36,0,0,1,1.16-.22c.66,0,.86,0,2.52,0s1.87,0,2.53,0a3.36,3.36,0,0,1,1.16.22,2,2,0,0,1,.72.46,2,2,0,0,1,.47.72,3.49,3.49,0,0,1,.21,1.16c0,.66,0,.86,0,2.53S18.08,14.84,18.05,15.49Z"/><path d="M13,9.76A3.21,3.21,0,1,0,16.18,13,3.21,3.21,0,0,0,13,9.76Zm0,5.3A2.09,2.09,0,1,1,15.05,13,2.09,2.09,0,0,1,13,15.06Z"/><circle cx="16.3" cy="9.63" r="0.75"/><circle class="cls-1" cx="12.97" cy="12.97" r="12.5"/></g></g></svg>